<svg width="200" height="60" viewBox="0 0 200 60" fill="none" xmlns="http://www.w3.org/2000/svg">
  <!-- Background with subtle gradient -->
  <rect width="200" height="60" rx="8" fill="url(#gradient)"/>
  
  <!-- Heart icon -->
  <path d="M25 35c0-8.284-6.716-15-15-15S-5 26.716-5 35c0 15 15 25 15 25s15-10 15-25z" fill="#EC4899" transform="translate(15, 5) scale(0.6)"/>
  <path d="M40 35c0-8.284-6.716-15-15-15s-15 6.716-15 15c0 15 15 25 15 25s15-10 15-25z" fill="#EC4899" transform="translate(15, 5) scale(0.6)"/>
  
  <!-- Text -->
  <text x="45" y="25" font-family="system-ui, sans-serif" font-size="14" font-weight="600" fill="#1F2937">ওবিবাহিত</text>
  <text x="45" y="42" font-family="system-ui, sans-serif" font-size="12" font-weight="400" fill="#6B7280">.কম</text>
  
  <!-- Decorative elements -->
  <circle cx="170" cy="15" r="3" fill="#3B82F6" opacity="0.6"/>
  <circle cx="180" cy="25" r="2" fill="#EC4899" opacity="0.6"/>
  <circle cx="175" cy="35" r="2.5" fill="#10B981" opacity="0.6"/>
  
  <!-- Gradient definition -->
  <defs>
    <linearGradient id="gradient" x1="0%" y1="0%" x2="100%" y2="0%">
      <stop offset="0%" style="stop-color:#FECACA;stop-opacity:1" />
      <stop offset="100%" style="stop-color:#BFDBFE;stop-opacity:1" />
    </linearGradient>
  </defs>
</svg>
